<?xml version="1.0" encoding="UTF-8"?>
<svg width="200" height="200" viewBox="0 0 200 200" fill="none" xmlns="http://www.w3.org/2000/svg">
  <!-- Círculo de fundo com gradiente -->
  <defs>
    <linearGradient id="gradient" x1="0%" y1="0%" x2="100%" y2="100%">
      <stop offset="0%" style="stop-color:#6a1b9a;stop-opacity:1" />
      <stop offset="100%" style="stop-color:#4a148c;stop-opacity:1" />
    </linearGradient>
  </defs>
  
  <!-- Círculo de fundo -->
  <circle cx="100" cy="100" r="90" fill="url(#gradient)" fill-opacity="0.2"/>
  
  <!-- Tomate estilizado -->
  <path d="M100 40C70 40 45 65 45 95C45 125 70 150 100 150C130 150 155 125 155 95C155 65 130 40 100 40Z" fill="#6a1b9a"/>
  
  <!-- Folhas minimalistas -->
  <path d="M95 35C95 35 85 25 75 30C65 35 70 50 80 45C90 40 95 35 95 35Z" fill="#51CF66"/>
  <path d="M105 35C105 35 115 25 125 30C135 35 130 50 120 45C110 40 105 35 105 35Z" fill="#51CF66"/>
  
  <!-- Timer marks - mais minimalista -->
  <path d="M100 60V95L125 120" stroke="white" stroke-width="6" stroke-linecap="round"/>
  
  <!-- Pontos decorativos - mais sutis -->
  <circle cx="70" cy="85" r="4" fill="white" fill-opacity="0.4"/>
  <circle cx="130" cy="85" r="4" fill="white" fill-opacity="0.4"/>
  <circle cx="100" cy="115" r="4" fill="white" fill-opacity="0.4"/>
  
  <!-- Efeito de brilho -->
  <circle cx="100" cy="100" r="90" stroke="white" stroke-opacity="0.1" stroke-width="1"/>
</svg> 